<?xml version="1.0" encoding="utf-8"?>
<!-- Generator: Adobe Illustrator 16.0.0, SVG Export Plug-In . SVG Version: 6.00 Build 0)  -->
<!DOCTYPE svg PUBLIC "-//W3C//DTD SVG 1.1 Tiny//EN" "http://www.w3.org/Graphics/SVG/1.1/DTD/svg11-tiny.dtd">
<svg version="1.1" baseProfile="tiny" xmlns="http://www.w3.org/2000/svg" xmlns:xlink="http://www.w3.org/1999/xlink" x="0px"
	 y="0px" width="1440px" height="1440px" viewBox="0 0 1440 1440" xml:space="preserve">
<g id="Layer_1">
	<path d="M999.004,374.642c1.123-2.032,0.389-4.747-1.7-5.904c-2.031-1.12-4.783-0.327-5.901,1.705
		c-1.153,2.087-0.327,4.777,1.701,5.897C995.192,377.498,997.851,376.728,999.004,374.642z"/>
	<path d="M812.009,347.167c1.118-2.032,0.325-4.784-1.7-5.903c-2.028-1.12-4.783-0.327-5.903,1.698
		c-1.118,2.028-0.323,4.783,1.702,5.904C808.137,349.986,810.886,349.191,812.009,347.167z"/>
	<path d="M908.101,349.396c1.085-1.964,0.354-4.685-1.735-5.842c-2.026-1.118-4.783-0.322-5.866,1.643
		c-1.153,2.087-0.327,4.781,1.701,5.898C904.294,352.248,906.945,351.481,908.101,349.396z"/>
	<path d="M804.787,299.765c-29.532,28.004-28.122,43.425-26.942,48.621c1.108,3.834,4.174,7.265,8.014,8.397
		c3.58,1.151,7.717-0.204,9.356-3.764c1.525-3.209,1.12-7.569-2.378-9.164c-2.257-1.003-4.313,0.172-3.408,0.927
		c1.92,1.468,1.298,3.938-0.16,4.785c-1.099,0.635-2.53,0.835-3.74,0.333c-6.59-2.893-2.948-13.534,1.608-18.789
		c6.87-7.943,17.646-11.584,26.815-13.964c0.849-0.19,1.604-0.354,2.354-0.518c-3.528,2.349-6,5.782-5.738,7.249
		c0.456,2.318,1.698,4.409,2.776,1.86c0.648-1.622,2.717-3.872,5.665-5.466c5.037-2.678,11.028-1.848,15.806,0.876
		c5.979,3.55,11.462,10.386,7.812,17.297c-1.727,3.428-5.595,4.438-8.188,3.748c-2.632-0.627-3.934-4.407-0.684-5.502
		c2.467-0.875,1.724,3.016,3.08,2.357c1.637-0.418,3.438-4.882,1.83-8.249c-0.741-1.65-2.16-3.423-4.125-4.514
		c-4.88-2.692-10.498-0.75-13.517,4.113c-3.782,6.094-2.597,13.53,3.477,17.053c7.95,4.475,16.532,1.359,21.379-6.212
		c5.821-9.189,0.93-18.596-6.987-23.126c3.65,1.021,7.136,2.199,10.264,3.43c4.936,1.987,8.9,4.091,11.269,5.482
		c16.146,9.998,13.447,18.179,11.809,20.993c-0.283,0.508-0.245,1.191,0.36,1.443c4.52,1.998,7.205,0.424,8.68-1.49
		c1.197-1.572,1.594-3.339,1.594-3.339c3,0.252,8.198,0.725,11.498-4.645c3.44-4.878-1.234-13.334-1.234-13.334
		c0.755-0.322,1.545-0.549,2.08-0.919c3.02,2.911,6.137,5.952,9.604,9.108c21.158,18.883,46.412,24.652,46.412,24.652
		c-1.458,0.847-5.106,0.566-0.733,3.727c8.117,5.808,24.997,11.328,39.216-5.128c4.434-5.325,7.307-10.681,8.917-15.996
		c1.132,2.447,3.021,4.568,5.229,5.208c4.045,0.913,7.967-0.646,6.825-6.069c0,0,2.303-2.37,2.651-4.654
		c0.255-1.35-0.243-2.699-2.217-3.626c-0.477-0.178-0.967-0.037-1.113,0.376c-0.602,1.241-2.208,3.997-4.856,3.108
		c-3.45-1.243-4.016-3.958-3.545-6.753c0.64-2.954,3.515-5.915-1.995-4.326c-0.858-4.439-2.726-8.537-5.302-12.111
		c-4.695-6.314-18.357-17.66-40.486-26.993c0.78-0.067,1.497-0.166,2.311-0.295c7.488-1.73,14.235-9.007,11.682-16.203
		c-2.974-8.84-10.313-6.774-10.313-6.774c-4.762-8.745-12.469-4.075-14.36-1.401c-1.863,2.777,0.287,3.219,1.67,2.663
		c1.495-0.912,4.349,0.662,6.019,2.58c3.509,3.675-0.727,8.941-3.071,10.043c-7.74,3.989-11.442-2.932-9.551-3.211
		c1.137-0.111,1.764,0.396,2.105,0.833c0.395,0.632,1.151,0.308,1.526-0.23c0.589-0.915,1.137-2.349,0.182-4.365
		c-1.898-3.445-7.403-5.163-9.87-2.64c-3.445,3.388-2.752,8.732-1.085,10.646c0.247,0.302,0.495,0.605,0.837,0.874
		c-0.415-0.142-0.7-0.221-1.09-0.269c-28.777-7.628-48.411-7.562-62.85-6.275c-1.302-6.918-0.677-11.949,0.048-16.097
		c1.653-8.681,7.075-12.213,12.702-8.778c5.195,3.615-0.42,9.443-1.599,9.782c-1.138,0.117-2.446,1.133,0.037,2.173
		c2.267,0.837,7.111,3.598,11.938-0.352c5.83-4.715,2.642-11.521,2.642-11.521c13.222-10.311-6.3-27.213-19.306-19.681
		c-14.858,8.333-16.151,28.787-12.611,45.127c-1.271,0.208-2.474,0.289-3.709,0.432C843.201,275.425,819.009,286.45,804.787,299.765
		z M877.908,282.356c28.936,3.003,43.361,17.753,48.596,25.191c2.264,3.237,4.2,7.368,2.485,11.215
		c-0.363,0.957-1.104,1.704-1.849,2.453c-0.373,0.372-0.753,1.067-0.22,1.443c0.972,0.788,2.052,1.218,3.019,1.422
		c2.09,0.412,4.062-0.32,5.021-1.607c0,0,9.092,9.733,17.612,6.588c8.505-3.572,4.725-17.238,4.725-17.238
		c1.532-0.228,2.858-2.475,0.33-6.433c-2.5-3.859-8.908-9.468-22.755-16.289c-27.924-13.361-56.267-14.3-56.267-14.3
		c17.429,0.037,30.063,0.815,60.085,10.539c29.561,9.795,29.012,26.36,27.908,29.555c-0.439,1.989-1.161,2.998-1.666,3.463
		c-0.235,0.28-0.285,0.667-0.004,0.908c1.879,1.533,3.391,2.696,4.924,3.213c1.18,0.405,2.345,0.388,3.74-0.333
		c0,0,1.958,13.817,9.222,11.295c2.632-1.024,3.625-3.121,3.943-5.343c0.51-3.768-1.134-7.825-1.134-7.825
		c4.516-0.393,3.612-3.705,0.794-7.578c-4.726-6.415-14.695-14.571-14.695-14.571c12.144,8.114,18.422,15.305,21.207,21.642
		c3.106,7.254,1.59,13.442-1.337,18.44c-5.365,9.111-18.089,12.087-25.669,4.1c-3.04-3.169-1.923-5.944-1.1-7.141
		c0.38-0.536-0.177-1.172-0.655-1.355c-5.825-2.474-8.53,3.472-8.53,3.472c-3.932-2.168-10.318-1.233-13.059,5.522
		c-2.783,6.98,4,11.469,4,11.469c-23.255-8.793-33.302-19.797-36.905-25.844c-7.552-11.774-0.945-18.051-0.945-18.051
		c-1.243-5.233-4.262-6.652-6.979-6.83c-2.583-0.105-4.896,0.933-4.896,0.933c-3.097-5.018-5.719-7.459-7.849-8.388
		c-5.667-2.468-8.203,5.719-8.203,5.719c-4.929-7.849-8.184-14.523-10.349-20.185C872.941,281.766,875.427,282.06,877.908,282.356z
		 M864.205,281.568c0.437,1.151,0.948,2.177,1.418,3.269c4.37,10.348,10.615,20.001,19.964,30.62
		c-7.537-3.416-17.367-5.541-17.367-5.541c1.922-4.065-13.382-14.835-34.934-10.698c-28.806,5.586-45.121,25.099-45.121,25.099
		C812.577,290.753,839.261,281.517,864.205,281.568z"/>
	<path d="M348.906,342.094c1.611,5.315,4.489,10.671,8.916,15.996c14.219,16.456,31.097,10.937,39.216,5.128
		c4.375-3.161,0.726-2.88-0.734-3.727c0,0,25.258-5.769,46.416-24.652c3.465-3.156,6.582-6.197,9.603-9.108
		c0.535,0.37,1.321,0.598,2.08,0.919c0,0-4.674,8.457-1.236,13.334c3.301,5.37,8.494,4.897,11.498,4.645
		c0,0,0.397,1.768,1.595,3.339c1.472,1.914,4.161,3.487,8.68,1.49c0.603-0.252,0.642-0.935,0.362-1.443
		c-1.638-2.814-4.342-10.995,11.803-20.993c2.374-1.391,6.337-3.495,11.275-5.482c3.125-1.231,6.607-2.409,10.259-3.43
		c-7.913,4.53-12.806,13.937-6.987,23.126c4.846,7.572,13.43,10.687,21.377,6.212c6.075-3.522,7.262-10.958,3.479-17.053
		c-3.018-4.863-8.638-6.805-13.515-4.113c-1.965,1.091-3.383,2.864-4.125,4.514c-1.611,3.367,0.194,7.83,1.828,8.249
		c1.356,0.658,0.614-3.232,3.079-2.357c3.254,1.096,1.95,4.875-0.681,5.502c-2.594,0.69-6.458-0.32-8.188-3.748
		c-3.654-6.911,1.833-13.747,7.81-17.297c4.779-2.724,10.77-3.554,15.805-0.876c2.948,1.594,5.019,3.844,5.667,5.466
		c1.077,2.549,2.32,0.458,2.776-1.86c0.263-1.467-2.21-4.9-5.743-7.249c0.753,0.164,1.506,0.328,2.356,0.518
		c9.168,2.38,19.945,6.021,26.813,13.964c4.558,5.254,8.202,15.896,1.617,18.789c-1.213,0.502-2.647,0.302-3.74-0.333
		c-1.46-0.847-2.08-3.317-0.167-4.785c0.911-0.754-1.147-1.93-3.406-0.927c-3.497,1.594-3.902,5.954-2.377,9.164
		c1.638,3.56,5.773,4.915,9.354,3.764c3.842-1.132,6.909-4.563,8.013-8.397c1.181-5.196,2.591-20.616-26.941-48.621
		c-14.217-13.314-38.414-24.34-53.305-26.451c-1.242-0.143-2.441-0.223-3.712-0.432c3.541-16.34,2.247-36.795-12.607-45.127
		c-13.011-7.532-32.532,9.37-19.314,19.681c0,0-3.185,6.806,2.646,11.521c4.825,3.949,9.67,1.188,11.937,0.352
		c2.483-1.04,1.178-2.057,0.038-2.173c-1.179-0.338-6.795-6.167-1.6-9.782c5.626-3.435,11.052,0.098,12.704,8.778
		c0.722,4.148,1.348,9.179,0.047,16.097c-14.438-1.287-34.072-1.354-62.852,6.275c-0.387,0.048-0.673,0.127-1.09,0.269
		c0.346-0.269,0.593-0.572,0.84-0.874c1.671-1.914,2.359-7.258-1.086-10.646c-2.466-2.522-7.969-0.805-9.869,2.64
		c-0.954,2.016-0.409,3.45,0.179,4.365c0.377,0.538,1.137,0.862,1.533,0.23c0.336-0.438,0.966-0.944,2.103-0.833
		c1.891,0.279-1.811,7.2-9.554,3.211c-2.345-1.103-6.58-6.369-3.069-10.043c1.672-1.918,4.523-3.492,6.016-2.58
		c1.387,0.557,3.538,0.114,1.672-2.663c-1.889-2.674-9.598-7.344-14.358,1.401c0,0-7.34-2.066-10.314,6.774
		c-2.555,7.196,4.19,14.473,11.679,16.203c0.816,0.129,1.53,0.228,2.314,0.295c-22.131,9.333-35.792,20.679-40.489,26.993
		c-2.573,3.574-4.447,7.672-5.301,12.111c-5.509-1.589-2.633,1.372-1.994,4.326c0.471,2.796-0.097,5.511-3.547,6.753
		c-2.651,0.888-4.255-1.868-4.856-3.108c-0.147-0.413-0.639-0.554-1.117-0.376c-1.972,0.927-2.467,2.276-2.218,3.626
		c0.355,2.284,2.654,4.654,2.654,4.654c-1.138,5.423,2.782,6.982,6.828,6.069C345.886,346.662,347.776,344.541,348.906,342.094z
		 M481.905,284.837c0.474-1.092,0.983-2.118,1.422-3.269c24.942-0.052,51.627,9.185,76.04,42.748c0,0-16.319-19.513-45.122-25.099
		c-21.55-4.138-36.853,6.633-34.938,10.698c0,0-9.825,2.125-17.362,5.541C471.291,304.838,477.536,295.185,481.905,284.837z
		 M354.599,319.769c2.785-6.337,9.064-13.528,21.204-21.642c0,0-9.966,8.157-14.691,14.571c-2.822,3.873-3.721,7.185,0.795,7.578
		c0,0-1.646,4.058-1.135,7.825c0.317,2.222,1.313,4.318,3.944,5.343c7.264,2.521,9.225-11.295,9.225-11.295
		c1.39,0.72,2.556,0.738,3.739,0.333c1.532-0.518,3.038-1.681,4.92-3.213c0.283-0.241,0.235-0.628-0.005-0.908
		c-0.503-0.466-1.224-1.474-1.665-3.463c-1.104-3.194-1.653-19.76,27.909-29.555c30.021-9.724,42.657-10.502,60.087-10.539
		c0,0-28.341,0.939-56.268,14.3c-13.848,6.821-20.259,12.429-22.756,16.289c-2.526,3.958-1.202,6.205,0.329,6.433
		c0,0-3.778,13.666,4.727,17.238c8.519,3.145,17.613-6.588,17.613-6.588c0.961,1.288,2.934,2.019,5.022,1.607
		c0.965-0.204,2.047-0.634,3.017-1.422c0.537-0.376,0.153-1.072-0.219-1.443c-0.743-0.749-1.486-1.496-1.85-2.453
		c-1.712-3.848,0.224-7.979,2.489-11.215c5.233-7.438,19.659-22.188,48.597-25.191c2.481-0.296,4.963-0.591,7.45-0.726
		c-2.162,5.662-5.418,12.336-10.348,20.185c0,0-2.538-8.187-8.203-5.719c-2.132,0.929-4.752,3.371-7.85,8.388
		c0,0-2.311-1.038-4.901-0.933c-2.713,0.178-5.731,1.597-6.974,6.83c0,0,6.607,6.277-0.946,18.051
		c-3.605,6.047-13.65,17.05-36.903,25.844c0,0,6.779-4.488,3.997-11.469c-2.739-6.756-9.127-7.691-13.055-5.522
		c0,0-2.708-5.945-8.534-3.472c-0.477,0.183-1.035,0.819-0.654,1.355c0.823,1.197,1.941,3.972-1.104,7.141
		c-7.576,7.987-20.3,5.011-25.663-4.1C353.012,333.211,351.495,327.023,354.599,319.769z"/>
	<path d="M537.225,341.264c-2.029,1.119-2.823,3.872-1.703,5.903c1.122,2.024,3.874,2.819,5.902,1.699
		c2.026-1.122,2.819-3.876,1.703-5.904C542.005,340.937,539.251,340.144,537.225,341.264z"/>
	<path d="M441.166,343.554c-2.09,1.157-2.821,3.877-1.736,5.842c1.156,2.086,3.809,2.853,5.902,1.699
		c2.028-1.118,2.854-3.811,1.7-5.898C445.947,343.232,443.193,342.436,441.166,343.554z"/>
	<path d="M350.229,368.737c-2.092,1.158-2.821,3.873-1.704,5.904c1.155,2.086,3.811,2.856,5.904,1.698
		c2.027-1.121,2.856-3.811,1.7-5.897C355.01,368.411,352.254,367.617,350.229,368.737z"/>
</g>
<g id="Layer_9">
	<path d="M608.908,334.072c0,7.94,0.467,7.94,0.467,15.88c0,1.775,1.121,3.269,2.896,3.269c3.83,0,3.83-0.56,7.66-0.56
		c1.775,0,3.83-0.934,3.83-2.709c0-7.94,0.093-7.94,0.093-15.88c0-7.941-0.841-7.941-0.841-15.882c0-7.939,0.094-7.939,0.094-15.88
		c0-7.939,0.653-7.939,0.653-15.88c0-1.775-2.055-3.363-3.83-3.363c-3.83,0-3.83-0.653-7.66-0.653c-1.775,0-3.923,2.242-3.923,4.017
		c0,7.941,1.122,7.941,1.122,15.88c0,7.941,0,7.941,0,15.88C609.469,326.131,608.908,326.131,608.908,334.072z"/>
	<path d="M650.008,353.409c3.83,0,3.83,0.374,7.566,0.374c1.776,0,2.616-2.055,2.616-3.83c0-8.034,0.841-8.034,0.841-15.975
		c0-8.033-0.094-8.033-0.094-15.974c0-8.034,0-8.034,0-15.974c0-2.617,2.056-4.484,4.578-4.484c4.297,0,4.297,0.56,8.594,0.56
		c1.775,0,3.923-2.241,3.923-4.109c0-3.737-0.374-3.737-0.374-7.567c0-1.775-1.774-3.83-3.549-3.83
		c-10.182,0-10.182,0.654-20.271,0.654c-10.183,0-10.183-0.188-20.365-0.188c-1.775,0-3.83,1.588-3.83,3.363
		c0,3.83,1.122,3.83,1.122,7.567c0,1.868,0.934,2.522,2.708,2.522c4.297,0,4.297,0.653,8.594,0.653c2.522,0,4.671,2.242,4.671,4.858
		c0,7.939-0.093,7.939-0.093,15.974c0,7.94,0.374,7.94,0.374,15.974c0,7.941-1.122,7.941-1.122,15.975
		C645.897,351.727,648.233,353.409,650.008,353.409z"/>
	<path d="M688.58,305.392c0.747,0,0.747-0.186,1.494-0.186c1.589,0,2.803-1.496,3.083-3.083c1.308-7.567,1.122-7.567,2.429-15.227
		c0.281-1.961-0.841-4.578-2.896-4.578c-3.363,0-3.363,0.841-6.725,0.841c-2.056,0-3.083,1.776-2.71,3.737
		c1.308,7.567,0.562,7.753,1.869,15.32C685.403,303.805,686.992,305.392,688.58,305.392z"/>
	<path d="M723.327,339.582c-3.548,0.188-6.444-1.4-7.378-4.483c-0.467-1.4-1.775-1.495-3.177-1.495c-4.11,0-4.11-0.934-8.127-0.934
		c-2.054,0-4.39,2.148-4.016,4.204c0.934,5.138,4.016,10.089,7.846,13.265c3.737,3.177,9.156,4.111,14.479,4.111
		c5.979,0,11.863-1.588,15.788-5.605c3.924-3.923,5.604-9.809,5.604-15.787c0-6.072-2.521-9.716-5.977-12.986
		c-3.83-3.549-8.594-5.698-12.799-7.566c-8.314-3.737-9.995-5.699-9.995-9.342c0-3.644,3.27-6.54,6.912-6.726
		c3.458-0.186,6.071,2.055,7.099,5.231c0.468,1.308,2.057,2.522,3.553,2.522c4.016,0,4.016-1.215,8.032-1.215
		c2.057,0,2.896-0.934,2.523-2.989c-0.934-5.138-2.523-10.275-6.354-13.451c-3.83-3.177-9.062-3.923-14.387-3.923
		c-6.071,0-12.143,1.121-16.066,5.138c-4.018,3.923-5.045,9.995-5.045,15.974c0,6.071,1.868,10.183,5.231,13.358
		c3.83,3.551,8.594,6.166,12.798,8.127c8.313,3.737,11.304,4.391,11.304,8.408C731.176,337.061,726.973,339.396,723.327,339.582z"/>
</g>
<g id="Layer_6">
	<path d="M1039.3,528.861c-2.292-5.214-6.297-9.759-11.224-13.834c-8.867-7.333-19.105-14.68-31.016-15.119
		c-7.625-0.276-14.787,5.043-20.044,11.18c-6.153,5.16-10.896,11.714-12.842,20.16c-1.805,7.826-1.028,19.066,3.354,27.224
		c0.682,1.913,1.604,3.757,2.773,5.526c-0.771,2.542-1.55,5.089-2.698,7.552c-2.262,4.842-4.967,9.528-7.787,14.07
		c-2.773,4.469-5.938,8.729-9.332,12.75c-1.666,1.967-3.71,3.887-5.39,5.99c-4.907-2.188-10.254-2.91-15.66-2.972
		c-3.815-0.047-8.559-0.047-9.924,4.373c-1.26,4.075,2.429,8.391,4.767,11.292c4.28,5.316,11.014,8.519,16.639,12.137
		c6.19,3.99,12.262,7.957,19.099,10.769c3.132,1.292,9.056,3.297,12.07,0.82c6.938-5.707,0.202-19.924-6.16-25.796
		c0.438-1.184,0.875-2.325,1.396-3.307c2.151-4.028,5.026-7.698,7.72-11.372c3.089-4.227,6.023-8.535,9.242-12.669
		c2.505-3.217,5.755-6.3,8.026-9.83c1.955,0.358,3.922,0.557,5.825,0.545c9.392,0.764,20.245-3.333,26.728-8.38
		c3.345-2.604,5.981-5.632,8.066-8.943c3.693-4.778,6.382-10.349,7.717-16.075c1.332-5.688,0.815-10.738-1-15.287
		C1039.621,529.348,1039.493,529.069,1039.3,528.861z M994.459,507.212c9.53-1.904,19.427,5.81,26.445,11.232
		c5.562,4.297,10.057,8.674,12.054,14.195c-1.717-0.012-3.488-0.75-5.054-1.311c-6.743-2.411-13.144-5.179-19.32-8.835
		c-5.49-3.259-10.457-7.379-15.113-11.735c-1.087-1.019-1.855-1.898-2.141-2.656C992.325,507.745,993.357,507.438,994.459,507.212z
		 M966.41,628.831c0.467,1.335,0.663,2.788,0.932,4.17c0.505,2.637,0.64,1.788-1.672,1.245c-7.679-1.816-14.408-6.849-20.905-11.084
		c-6.438-4.208-14.032-7.688-18.042-14.57c-0.792-1.349,1.255-0.576,2.457-0.608c1.968-0.047,3.887-0.175,5.863-0.123
		c2.488,0.066,4.925,0.349,7.38,0.481c-0.017,0.038-0.038,0.061-0.045,0.099c-1.137,4.382,4.854,7.642,7.717,9.981
		c2.198,1.797,7.227,5.278,10.202,3.665c0.598,0.193,1.26,0.071,1.798-0.363c0.054-0.043,0.104-0.09,0.155-0.137
		C963.92,623.784,965.418,626.024,966.41,628.831z M968.08,597.766c-3.042,4.165-11.502,14.197-10.113,20.853
		c-0.277,0.023-0.561,0.042-0.863,0.033c-2.037-0.038-4.2-0.896-5.945-1.896c-2.323-1.321-4.227-3.099-5.344-5.358
		c4.488-1.477,7.804-5.868,10.757-9.368c3.815-4.519,7.2-9.344,10.306-14.372c2.896-4.698,6.963-11.137,8.802-17.556
		c0.503,0.443,1.01,0.887,1.557,1.321c2.123,1.691,5.17,3.335,8.602,4.599C978.735,582.059,973.523,590.306,968.08,597.766z
		 M1033.836,542.352c-2.687,9.163-6.588,18.127-14.748,22.953c-4.733,2.804-9.712,4.974-15.115,5.523
		c-0.339,0.028-0.677,0.066-1.016,0.097c-0.746,0.047-1.5,0.073-2.262,0.052c-2.145-0.052-4.378-0.286-6.517-0.113
		c-4.085-0.672-7.981-2.229-11.509-4.403c-2.161-1.334-4.104-3.044-5.805-5.014c-0.187-0.967-0.513-1.909-0.905-2.834
		c-5.936-7.967-8.026-18.14-4.607-27.14c1.92-8.178,7.985-14.702,14.553-20.402c1.642,3.196,5.217,6.257,7.009,7.943
		c7.854,7.377,17.062,12.802,27.03,16.823c3.59,1.446,9.825,4.531,14.12,3.188C1034.066,540.097,1034.005,541.196,1033.836,542.352z
		"/>
	<path d="M939.338,611.949c-0.474-1.042-1.162-2.01-2.323-2.307c-1-0.26-2.054,0.071-2.622,0.962
		c-0.521,0.816-0.505,2.085,0.23,2.788c0.778,0.74,1.562,0.924,2.366,1.344c0.738,0.382,1.488,0.594,2.278,0.839
		c0.877,0.273,1.818-0.953,1.037-1.627C939.753,613.468,939.631,612.591,939.338,611.949z"/>
	<path d="M958.8,625.84c-1.54-0.788-2.813,1.198-1.441,2.259c0.491,0.377,0.956,0.66,1.595,0.684
		c1.389,0.047,1.783-1.679,0.764-2.448C959.437,626.123,959.111,626,958.8,625.84z"/>
	<path fill="#FFFFFF" d="M984.572,566.738c7.073,4.663,16.37,4.462,24.247,2.382c7.278-1.92,17.637-7.733,19.417-15.658
		c0.26-1.148-0.94-1.875-1.865-1.191c-0.86,0.636-1.672,1.292-2.46,1.957c-4.271,3.602-7.748,7.474-13.299,9.92
		c-7.137,3.144-15.075,2.792-22.057-0.5c-15.081-7.111-17.702-25.896-10.348-39.451c0.355-0.655,0.727-1.303,1.129-1.932
		c0.422-0.663-0.47-1.427-1.054-0.889c-3.283,3.026-5.552,6.466-6.931,10.096c-3.419,9-1.328,19.173,4.607,27.14
		C978.279,561.725,981.183,564.501,984.572,566.738z"/>
	<path fill="#FFFFFF" d="M999.551,542.687c-0.307-0.155-0.604,0.288-0.295,0.462c6.65,3.738,16.417,11.842,24.916,9.83
		c1.222-0.29,2.418-0.787,3.574-1.538c0.342-0.227,0.262-0.746-0.172-0.783c-1.556-0.135-3.061-0.242-4.547-0.369
		c-3.253-0.278-6.406-0.664-9.731-1.716C1008.584,547.083,1003.938,544.934,999.551,542.687z"/>
	<path fill="#FFFFFF" d="M989.042,554.526c0.144,0.212,0.295,0.425,0.457,0.627c0.645,0.792,1.948,0.613,2.477-0.21
		c0.523-0.818,0.137-2.083-0.856-2.328c-0.252-0.066-0.502-0.113-0.764-0.151C989.349,552.323,988.495,553.67,989.042,554.526z"/>
	<path fill="#FFFFFF" d="M987.594,547.866c0.637,0.477,1.312,0.161,1.651-0.389c0.07-0.068,0.148-0.132,0.198-0.212
		c0.391-0.616,0.184-1.401-0.401-1.805c-0.453-0.311-1.068-0.474-1.566-0.16c-0.476,0.3-0.894,0.882-0.698,1.477
		C986.945,547.278,987.184,547.55,987.594,547.866z"/>
	<path fill="#FFFFFF" d="M997.355,559.179c1.017,0.757,2.16-1.04,1.052-1.648c-0.148-0.081-0.304-0.151-0.465-0.198
		c-0.887-0.271-1.58,0.826-0.967,1.514C997.089,558.969,997.216,559.08,997.355,559.179z"/>
</g>
<g id="Layer_8">
	<path d="M1018.607,472.762c2.615-5.196,6.83-9.863,10.134-14.694c3.163-4.63,7.972-10.497,6.368-16.167
		c-1.191-4.204-8.644-4.031-10.017,0.204c-1.42,4.393-1.892,9.571-3.655,14.51c-1.809,5.035-3.68,10.089-5.755,15.033
		C1014.897,473.515,1017.697,474.564,1018.607,472.762z"/>
	<path d="M987.457,444.271c-1.205,1.385-1.095,2.991-1.113,4.638c-0.017,1.733-0.052,2.558-0.195,4.343
		c-0.1,1.194-0.092,2.45-0.326,3.632c-0.36,1.795,2.342,2.93,3.441,1.311c1.188-1.752,1.82-3.773,2.542-5.719
		c0.406-1.101,0.899-2.197,1.415-3.262c0.283-0.586,0.682-1.099,0.741-1.774c0.002-0.085,0.012-0.196,0.017-0.32
		c-0.05,0.133-0.113,0.3-0.225,0.5c-0.005,0.002-0.014,0.008-0.023,0.012c0.092-0.204,0.187-0.396,0.248-0.623
		c0,0.013,0,0.02,0,0.032c0-0.026,0-0.026,0.007-0.044c0,0.04-0.003,0.083-0.007,0.123c0.087-0.252,0.075-0.35,0.04-0.316
		c-0.013,0.058-0.015,0.113-0.028,0.169c0,0.003-0.005,0.013-0.005,0.019c0.014-0.099,0.019-0.165,0.033-0.188
		C994.782,443.179,989.844,441.52,987.457,444.271z"/>
	<path d="M1035.635,494.874c10.097-3.503,17.877-11.063,27.287-15.926c5.028-2.598,15.815-6.211,18.377-11.817
		c-0.142,0-0.288,0.003-0.432,0.011c1.39-2.752,0.833-6.323-3.62-6.948c-5.118-0.713-12.169,7.128-15.702,9.687
		c-9.599,6.929-18.142,15.181-27.292,22.661C1032.958,493.592,1034.093,495.408,1035.635,494.874z"/>
	<path d="M1100.244,498.772c-6.167-1.35-15.742,4.083-21.309,6.341c-8.186,3.324-16.48,6.796-23.914,11.595
		c-1.17,0.757-0.363,2.667,0.99,2.389c7.684-1.583,15.19-3.839,22.769-5.887c7.307-1.967,15.471-2.495,22.547-4.91
		C1106.766,506.446,1104.742,499.759,1100.244,498.772z"/>
	<path d="M1088.561,532.513c-6.462,1.297-12.855,2.905-19.271,4.394c-1.93,0.45-2.236,3.233-0.095,3.45
		c6.356,0.644,12.807-0.658,19.15-0.102C1094.457,540.791,1094.223,531.375,1088.561,532.513z"/>
</g>
<g id="Layer_5">
	<path d="M500.71,698.758c-12.25,2.175-18.375,10.198-20.728,21.594c-2.272,11.004,2.758,19.093,11.109,25.669
		c2.942,2.307,7.521,3.132,7.818,8.434c-1.003,0.396-2.05,1.222-2.969,1.094c-3.289-0.457-6.484-0.967-7.926,3.033
		c-0.783,2.184,0.25,3.985,2.052,5.047c3.396,2.01,7.025,1.882,9.995-0.627c6.745-5.722,5.563-11.948,1.617-19.057
		c-5.594-10.08-3.638-18.315,4.286-22.669c7.645-4.193,18.89-1.24,24.348,6.392c10.226,14.301,4.624,35.806-11.362,43.588
		c-28.187,13.727-61.843-0.589-72.726-30.924c-15.621-43.517,5.576-83.828,49.463-97.04c-0.633-2.391-0.968-4.868-0.968-7.373
		c0-0.142,0.008-0.288,0.011-0.429c-39.879,12.839-65.124,49.546-61.243,94.106c2.526,28.985,22.051,52.391,49.999,59.909
		c24.065,6.462,52.05-5.16,62.77-26.849c9.233-18.664,5.641-36.188-6.927-52.196C529.217,697.598,515.63,696.093,500.71,698.758z"/>
	<path d="M707.836,777.397c-15.396-9.929-33.258-9.929-46.942-0.312c-9.521,6.698-13.77,18.5-10.762,29.212
		c2.982,10.627,10.422,15.754,20.854,16.344c7.692,0.438,14.528-2.745,16.77-10.561c2.392-8.316-4.749-10.528-10.5-13.278
		c-2.959-1.425-5.894-3.227-8.233,0.59c-2.275,3.707-2.446,7.363,0.804,10.862c1.973,2.123,6.125,0.76,7.604,4.821
		c-10.168,2.934-17.987,1.542-21.87-8.717c-3.819-10.132,0.881-21.943,10.014-26.377c13.337-6.462,30.675-2.405,40.907,9.565
		c11.59,13.59,12.896,33.995,3.017,47.424c-13.104,17.839-37.961,26.334-59.367,20.306c-30.789-8.684-52.009-37.701-54.169-73.503
		c-1.953-32.532,9.099-60.437,28.945-85.644c3.346-4.245,5.754-7.349,7.782-9.368h-8.979c-1.09,1.504-2.343,3.169-3.777,5.066
		c-2.39,3.151-5.167,6.057-7.257,9.405c-25.197,40.315-36.431,82.847-11.234,126.629c18.639,32.386,40.002,43.569,75.399,41.319
		c27.616-1.759,48.256-21.367,51.529-48.819C730.591,803.727,724.209,787.959,707.836,777.397z"/>
	<path d="M670.912,688.763h-27.026c1.972,1.514,4.331,3.618,7.343,6.306c2.658,2.373,5.523,4.51,8.215,6.849
		c33.66,29.353,65.527,60.927,106.27,81.167c28.049,13.948,57.076,21.443,88.672,18.104c-49.496-1.217-88.521-25.641-123.638-56.956
		C710.464,726.145,691.218,706.871,670.912,688.763z"/>
	<path d="M917.124,634.892c-0.477-0.344-0.96-0.674-1.443-1.004c0.05,0.674,0.085,1.349,0.085,2.033v9.938
		c0,1.203-0.09,2.387-0.231,3.552c11.118,11.16,20.063,24.797,26.415,40.999c24.037,61.324-22.104,102.205-65.754,102.695
		c-3.561,0.033-7.122,0.005-10.692,0.005c-34.644,1.278-63.739-13.565-91.238-32.192c-30.497-20.669-55.736-47.438-82.755-72.154
		h-6.959c26.797,23.82,51.687,49.795,80.657,71.215c34.534,25.537,72.008,40.923,115.865,38.088
		c34.728-2.245,69.225-28.353,78.705-61.017C971.5,696.673,953.812,661,917.124,634.892z"/>
</g>
<g id="Layer_4">
	<path d="M481.778,626.246c1.464-1.75,2.645-3.675,3.352-5.835c2.397-7.32-0.74-15.839-3.576-22.547
		c-4.269-10.122-8.334-20.287-12.509-30.442c-5.451-13.264-11.269-26.362-16.554-39.683c-3.786-9.509-7.517-19.41-13.441-27.836
		c-2.909-4.148-6.354-8.436-10.754-11.1c-4.56-2.776-9.638-4.542-14.179-7.336c-7.229-4.467-11.877-10.522-15.78-17.282
		c-0.861-2.028-1.721-4.043-2.576-6.06c-3.091-7.292-5.594-16.248-10.312-22.83c0.606-0.188,1.141-0.628,1.454-1.416
		c2.314-5.894,0.679-13.943-4.81-17.445c-5.848-3.736-14.08-1.564-20.016,0.726c-6.749,2.591-13.144,7.529-16.249,14.14
		c-2.974,6.332,2.099,14.184,8.613,15.146c0.448,0.386,0.96,0.73,1.433,1.074c1.348,8.022,6.001,16.152,9.038,23.504
		c0.846,2.02,1.667,4.054,2.503,6.092c2.072,7.526,3.117,15.085,1.217,23.372c-1.198,5.191-3.508,10.046-4.733,15.242
		c-1.196,5.004-0.551,10.466,0.349,15.452c1.847,10.132,6.265,19.75,10.388,29.117c5.76,13.125,10.997,26.459,16.61,39.66
		c4.292,10.099,8.681,20.136,12.882,30.277c2.785,6.722,6.635,14.915,13.503,18.363c13.456,2.623,30.295-2.396,41.237-7.481
		C467.106,637.293,475.05,632.425,481.778,626.246z M354.087,428.103c2.834-2.81,6.271-4.777,9.925-6.319
		c3.792-1.601,7.991-2.524,12.119-2.149c0.302,0.031,0.59,0.081,0.873,0.139c-5.528,0.652-11.477,3.63-15.415,6.259
		c-0.337,0.227-0.006,0.767,0.354,0.607c3.316-1.514,6.773-2.656,10.361-3.328c2.095-0.391,4.148-0.058,6.202,0.187
		c-4.498,0.128-9.547,2.064-12.762,3.388c-4.999,2.053-12.582,6.553-14.927,12.109C348.265,435.041,351.264,430.905,354.087,428.103
		z M354.285,442.511c-0.701-0.561-1.388-1.145-2.038-1.795c4.003-4.189,8.249-7.108,13.721-9.332
		c3.024-1.231,6.08-2.227,9.287-2.823c2.743-0.514,5.101,0.071,7.688,0.222c-0.026,0.499-0.078,0.991-0.174,1.478
		c-4.141-2.106-9.151-0.019-13.037,1.945C364.153,435.016,358.526,437.848,354.285,442.511z M374.609,509.527
		c4.578-4.544,10.013-8.273,15.646-11.551c0.974-1.939,1.846-4.618,2.269-5.769c0.384-1.04,0.763-2.543,1.268-4.014
		c-0.453-2.106-0.688-4.278-1.13-6.513c-1.106-5.614-2.54-11.215-4.277-16.676c-0.094-0.295-0.012-0.542,0.145-0.708
		c-0.765-2.026-1.628-4.008-2.744-5.88c-0.663-0.277-1.182-0.861-1.264-1.8c-0.418-4.777-1.729-9.563-3.336-14.072
		c-0.126-0.349,0.36-0.682,0.587-0.342c2.593,3.86,4.67,7.622,6.599,11.777c0.382,0.328,0.672,0.786,0.761,1.381
		c0.255,1.616,0.597,3.404,1.037,5.254c3.552,5.219,6.538,10.844,10.759,15.587c4.836,5.442,10.47,9.265,16.759,12.813
		c7.939,4.488,18.351,11.571,19.686,21.398c0.08,0.585-0.652,0.839-1.014,0.422c-3.06-3.473-5.691-6.76-8.862-9.641
		c-0.347,0.413-1.031,0.518-1.517,0.005c-0.909-0.967-2.296-1.294-3.588-1.707c-0.356,1.05-1.397,1.894-2.607,1.709
		c-5.275-0.813-10.354-2.562-15.609-3.521c-0.657-0.124-1.381-0.258-2.124-0.428c-1.668,0.735-3.333,1.474-5.009,2.194
		c-7.639,3.288-15.257,5.494-21.742,10.962C374.736,510.886,374.112,510.022,374.609,509.527z M432.713,609.185
		c-2.814,0.835-5.829,1.401-8.713,2.236c-1.702,0.495-3.356,1.075-4.894,1.868c-1.906,0.986-2.127,1.481-3.074-0.307
		c-1.098-2.066-1.828-4.373-2.605-6.58c-3.988-11.297-9.787-21.879-14.806-32.73c-2.559-5.535-5.311-10.948-7.973-16.424
		c-2.924-6.014-5.071-12.358-7.921-18.391c4.104-0.523,7.604-2.302,11.386-4.127c5.292-2.557,10.912-4.552,16.329-6.807
		c5.687-2.363,11.144-5.231,16.796-7.674c1.548-0.67,2.984-1.576,4.502-2.297c0.171-0.066,1.321,3.75,1.593,4.661
		c3.667,12.37,9.626,24.306,14.824,36.079c5.177,11.726,10.341,23.457,15.319,35.268c-0.784,0.368-1.15,0.998-1.177,1.682
		c-4.373,2.017-8.413,4.785-12.702,6.964C444.187,605.322,438.508,607.444,432.713,609.185z"/>
</g>
<g id="Layer_3">
	<path d="M553.449,604.671c-2.302-2.627-4.823-4.604-8.221-5.698c-3.728-1.315-7.676-1.533-11.514-2.415
		c-9.536-1.972-17.429,0.769-23.679,7.453c-5.483,5.924-8.224,13.16-8.883,20.947c-0.764,8.325-0.217,16.552,2.194,24.773
		c2.083,7.123,6.139,12.825,12.388,17.32c5.703,4.057,12.061,6.25,18.968,7.241c4.386,0.547,8.77,0.217,13.047-1.099
		c6.686-2.189,9.976-7.236,11.839-13.264c1.973-6.471,2.412-13.047,2.412-20.065c0-6.137-0.22-12.608-1.752-18.858
		C558.932,615.308,557.506,609.496,553.449,604.671z M545.885,656.419c-1.317,3.071-2.96,5.924-6.25,7.566
		c-1.422,0.769-2.083,0.877-2.961-0.547c-1.533-2.198-3.177-4.387-4.054-6.91c-1.645-4.273-3.18-8.66-3.729-13.377
		c-0.438-3.504-0.657-7.009-0.657-10.523c0-6.028,1.644-11.727,4.274-17.104c1.535-3.179,3.511-6.25,5.483-9.207
		c1.096-1.533,1.752-1.425,3.068-0.109c2.522,2.632,3.507,5.92,4.824,9.099c2.85,6.905,3.728,14.254,4.055,23.131
		C550.159,643.812,548.626,650.283,545.885,656.419z"/>
	<path d="M585.35,565.424c-2.959-5.922-7.672-6.797-11.291-4.606c-1.098,0.655-1.753,1.646-1.645,3.401
		c0.328,3.066,0.44,6.139,0.768,9.207c0.547,5.92,0.877,11.839-0.11,17.764c-0.438,3.068,0.44,5.368,2.632,5.806
		c2.083,0.33,4.384,0.661,6.578-0.547c0.33-0.217,0.877-0.438,1.096-0.764c2.85-4.392,5.371-8.882,5.263-16.339
		C588.64,574.964,587.433,569.7,585.35,565.424z"/>
	<path d="M657.705,644.358c0.655,6.028,1.753,12.061,4.274,17.325c2.742,5.811,6.359,10.74,12.719,12.495
		c1.424,0.33,2.961,0.882,4.494,0.99c4.056,0.439,8.113,0.326,12.059-1.099c5.375-1.977,8.334-6.576,10.307-11.953
		c0.771-1.894,1.503-3.823,2.209-5.764c2.282,4.142,5.455,7.696,9.628,10.698c5.704,4.057,12.064,6.25,18.965,7.241
		c4.387,0.547,8.773,0.217,13.05-1.099c6.688-2.189,9.979-7.236,11.842-13.264c1.976-6.471,2.41-13.047,2.41-20.065
		c0-6.137-0.22-12.608-1.753-18.858c-1.318-5.698-2.74-11.509-6.794-16.334c-2.307-2.627-4.828-4.604-8.227-5.698
		c-3.726-1.315-7.677-1.533-11.514-2.415c-9.536-1.972-17.431,0.769-23.68,7.453c-5.48,5.924-8.222,13.16-8.881,20.947
		c-0.354,3.849-0.412,7.676-0.15,11.492c-0.838,2.276-1.493,4.63-2.149,6.923c-1.861,6.797-4.165,13.48-7.014,20.065
		c-0.219,0.325-0.439,0.655-0.661,0.985c-0.331-0.217-0.657-0.438-0.874-0.769c-0.333-1.099-0.55-2.193-0.877-3.179
		c-1.974-6.25-1.208-13.042-1.537-19.514c-0.218-2.741-0.329-5.481-0.218-8.226c0-5.698,0.218-11.509,0.438-17.315
		c0-0.443,0.109-0.882,0-1.321c-0.877-4.274,0.222-8.66,0.222-13.042c0-1.207,0.547-1.759,1.753-1.868
		c4.494-0.656,8.769-2.299,12.826-4.712c5.153-3.184,8.55-7.787,10.634-13.702c1.973-5.705,3.068-11.514,2.958-17.434
		c0-5.589-1.533-10.306-4.272-14.582c-3.401-5.262-8.663-6.799-15.131-6.688c-5.7,0.111-11.293,2.08-16.665,5.7
		c-6.908,4.825-12.496,10.856-15.347,19.297c-1.753,5.264-2.742,10.523-3.508,15.896c-0.438,3.288-0.659,6.688-0.88,10.085
		c-0.108,0.99-0.548,1.538-1.534,1.644c-3.041,0.525-6.15,0.982-9.221,1.586c0.004-0.126,0.011-0.255,0.015-0.381
		c0-0.764-0.438-1.75-1.206-2.188c-1.973-1.208-4.495-0.66-6.907-0.217c-1.862,0.438-1.643,1.972-1.973,3.177
		c-0.438,1.757-1.207,2.304-3.068,1.865c-3.072-0.66-6.143-0.443-9.321-0.33c-12.278,0.656-20.939,6.905-25.105,15.019
		c-3.401,6.58-4.933,13.269-5.373,20.061c-0.548,8.557,1.425,16.339,6.03,23.467c3.509,5.48,8.331,9.971,14.474,13.485
		c4.934,2.74,10.854,3.618,17.102,3.179c5.373-0.331,10.414-1.868,14.25-5.811c2.412-2.307,3.398-5.156,4.824-7.788
		c2.303-4.269,1.864-8.551,1.644-12.716c0-0.217-0.11-0.547-0.329-0.656c-1.534-1.208-3.728-1.208-5.81-0.764
		c-1.645,0.321-2.632,1.42-2.958,2.741c-0.329,1.528-0.659,2.958-1.318,4.377c-2.083,4.17-3.617,8.335-6.904,12.174
		c-2.414,2.741-3.949,2.08-6.143,0.547c-0.438-0.326-0.545-0.764-0.875-1.208c-2.083-3.618-3.289-7.458-3.179-11.726
		c0.11-3.623,0.11-7.349,0-10.962c-0.109-6.038-0.44-11.958-0.329-17.985c0-4.712,1.645-9.321,3.398-13.92
		c0.44-1.099,1.097-2.085,1.863-3.075c0.877-1.424,1.315-1.424,2.632-0.434c1.973,1.755,3.288,3.727,3.288,6.358
		c0,1.75,0.22,3.396,0.549,5.042c0.11,1.316,1.205,2.085,2.741,2.302c1.205,0.113,2.41,0.113,3.618-0.108
		c2.52-0.335,3.4-1.095,3.509-3.288c0.235-4.957,0.456-9.896,0.651-14.811c2.858-1.02,5.743-1.569,8.774-1.746
		c1.097-0.108,1.643,0.217,1.536,1.646c-0.22,2.632-0.439,5.259-0.439,7.891c0,4.934,0.439,9.972,0.219,15.023
		C657.157,631.203,657.046,637.783,657.705,644.358z M730.171,615.524c1.533-3.179,3.51-6.25,5.481-9.207
		c1.094-1.533,1.755-1.425,3.068-0.109c2.525,2.632,3.507,5.92,4.823,9.099c2.849,6.905,3.726,14.254,4.056,23.131
		c0.22,5.373-1.313,11.844-4.056,17.98c-1.316,3.071-2.958,5.924-6.25,7.566c-1.425,0.769-2.083,0.877-2.958-0.547
		c-1.535-2.198-3.179-4.387-4.057-6.91c-1.646-4.273-3.179-8.66-3.726-13.377c-0.441-3.504-0.661-7.009-0.661-10.523
		C725.893,626.6,727.539,620.901,730.171,615.524z M686.099,592.832c0.111-2.743,0.329-5.587,0.659-8.334
		c0.217-2.411,0.767-4.821,1.096-7.342c0.769-5.042,1.427-10.087,2.083-15.129c0.548-3.837,2.958-6.799,5.041-9.757
		c0.222-0.219,1.317-0.108,1.647,0.219c2.628,2.41,3.946,5.7,4.494,9.429c0.438,2.627,0.438,5.368,0.547,7.123
		c-0.984,7.235-2.302,13.266-6.029,18.749c-2.192,3.18-5.262,4.604-8.223,6.028C686.758,594.039,685.992,593.817,686.099,592.832z"
		/>
	<path d="M785.53,670.235c4.935,2.74,10.856,3.618,17.106,3.179c5.37-0.331,10.414-1.868,14.249-5.811
		c2.415-2.307,3.398-5.156,4.823-7.788c2.305-4.269,1.865-8.551,1.646-12.716c0-0.217-0.111-0.547-0.328-0.656
		c-1.538-1.208-3.727-1.208-5.812-0.764c-1.644,0.321-2.629,1.42-2.962,2.741c-0.325,1.528-0.655,2.958-1.313,4.377
		c-2.085,4.17-3.618,8.335-6.908,12.174c-2.41,2.741-3.945,2.08-6.137,0.547c-0.44-0.326-0.547-0.764-0.877-1.208
		c-2.085-3.618-3.292-7.458-3.179-11.726c0.108-3.623,0.108-7.349,0-10.962c-0.113-6.038-0.441-11.958-0.331-17.985
		c0-4.712,1.645-9.321,3.399-13.92c0.44-1.099,1.094-2.085,1.865-3.075c0.877-1.424,1.313-1.424,2.627-0.434
		c1.975,1.755,3.293,3.727,3.293,6.358c0,1.75,0.217,3.396,0.547,5.042c0.108,1.316,1.207,2.085,2.74,2.302
		c1.205,0.113,2.41,0.113,3.618-0.108c2.521-0.335,3.4-1.095,3.509-3.288c0.326-6.911,0.656-13.816,0.878-20.618
		c0-0.764-0.438-1.75-1.208-2.188c-1.977-1.208-4.495-0.66-6.905-0.217c-1.865,0.438-1.646,1.972-1.977,3.177
		c-0.438,1.757-1.202,2.304-3.07,1.865c-3.066-0.66-6.137-0.443-9.316-0.33c-12.282,0.656-20.938,6.905-25.107,15.019
		c-3.396,6.58-4.934,13.269-5.37,20.061c-0.55,8.557,1.425,16.339,6.03,23.467C774.571,662.23,779.392,666.721,785.53,670.235z"/>
	<path d="M827.626,662.891c0.443,3.613,0.993,7.123,0.993,10.74c0.106,3.839,2.188,5.264,4.82,6.472
		c2.633,1.094,5.481,0.873,8.113,0.325c4.823-0.764,8.443-3.509,8.332-9.759c0-0.325,0-0.655,0-0.872
		c0.111-0.439,0.222-0.877,0.222-1.316c0.439,0.217,0.873,0.439,1.203,0.661c4.934,5.038,11.07,7.339,17.431,8.769
		c2.854,0.656,5.92,0.986,8.88,0.656c4.825-0.547,9.434-2.193,13.927-4.604c4.495-2.523,8.332-6.25,10.415-11.844
		c2.19-6.25,3.287-12.825,3.837-19.514c0.108-2.519-0.438-3.401-2.523-3.727c-1.313-0.217-2.519-0.108-3.727,0.109
		c-1.644,0.217-2.849,1.099-3.068,3.184c-0.219,1.42-0.438,2.849-0.549,4.382c-0.77,6.467-2.741,12.5-6.689,17.32
		c-2.738,3.51-9.207,6.363-13.482,2.307c-4.276-4.061-8.115-8.443-12.059-12.83c-0.553-0.655-0.661-1.094,0.327-1.311
		c9.321-2.307,17.432-7.458,23.79-16.009c3.729-4.825,6.577-9.976,6.577-16.773c0-7.236-2.63-12.169-7.892-14.91
		c-4.492-2.302-9.211-2.849-14.364-1.868c-6.031,1.099-10.307,4.608-14.033,10.198c-2.957,4.604-5.372,9.538-7.561,14.693
		c-0.22,0.656-0.771,1.203-1.208,1.755c-0.222-0.552-0.55-1.208-0.66-1.868c-0.217-3.288-0.33-6.58-0.765-9.868
		c-0.112-1.316,0-1.863,0.986-2.188c7.344-2.962,11.839-9.429,15.129-17.108c1.975-4.49,2.852-9.318,3.729-14.252
		c0.877-4.932,1.205-9.752,0.107-14.577c-2.301-9.759-6.905-16.887-15.896-18.86c-2.742-0.545-5.594-0.653-8.443-0.328
		c-10.192,1.208-16.994,7.458-19.626,18.641c-1.972,8.004-2.741,16.004-2.85,23.461c-0.108,10.962,0.217,21.155,1.535,31.245
		c0.986,6.797,2.191,13.485,2.96,20.283C826.426,650.057,826.973,656.528,827.626,662.891z M852.848,640.746
		c2.407-6.58,5.259-13.047,8.551-19.188c2.303-4.169,5.368-7.349,8.878-9.981c1.207-0.985,1.974-0.873,2.302,0.443
		c0.985,3.727,2.962,7.236,2.193,11.179c0.547,5.924-2.302,10.084-4.934,14.254c-2.852,4.82-7.236,7.344-11.84,9.099
		c-0.877,0.439-1.972,0.222-2.849,0C851.088,645.458,851.088,645.349,852.848,640.746z M847.145,559.724
		c0.547-0.988,1.097-1.097,1.755-0.439c4.934,4.821,8.005,10.962,9.099,18.417c0.986,7.017-0.547,13.703-3.07,20.172
		c-1.533,4.057-3.288,8.004-6.467,10.745c-0.33,0.33-0.878,0.438-1.208,0.547c-0.108-0.438-0.325-0.764-0.325-1.203
		c-0.222-9.321-1.535-18.639-0.99-28.07c0.113-3.288-0.326-6.576-0.545-9.863C845.611,566.521,845.611,563.014,847.145,559.724z"/>
</g>
<g id="Layer_2">
	<path d="M591.939,513.607c5.447,0,5.447-0.517,10.892-0.517c5.447,0,5.447-0.172,11.023-0.172c1.945,0,2.853-2.406,1.426-4.294
		c-2.723-3.779-4.668-8.418-5.316-13.229c-0.648-4.81,0.389-9.792,2.074-14.431c2.205-6.013,1.946-6.184,4.15-12.369
		c2.075-6.013,2.075-6.013,4.149-12.198c2.205-6.013,2.335-5.84,4.539-12.025c2.075-6.013,1.816-6.356,3.89-12.37
		c2.205-6.013,2.205-6.013,4.409-12.196c1.427-4.296,3.242-8.591,5.317-12.542c2.074-3.95,4.668-7.386,7.262-10.823
		c1.816-2.404,1.557-2.921,3.501-5.325c1.427-1.891,0.389-5.498-1.556-5.498c-5.317,0-5.317,0.515-10.634,0.515
		c-5.317,0-5.317,0.688-10.633,0.688c-5.317,0-5.317-0.344-10.764-0.344c-5.316,0-5.316,0.172-10.633,0.172
		c-5.317,0-5.317-0.516-10.634-0.516c-1.944,0-2.982,3.264-1.685,5.153c1.815,2.233,1.555,2.405,3.372,4.639
		c3.112,4.294,4.409,10.307,2.853,15.805c-1.945,6.185-2.204,6.013-4.021,12.198c-1.814,6.013-2.074,6.013-3.89,12.198
		c-1.815,6.013-1.686,6.185-3.501,12.198c-1.816,6.185-1.686,6.356-3.501,12.369c-1.167,3.779-5.317,4.124-6.484,0.344
		c-1.815-6.185-1.167-6.357-2.982-12.542c-1.815-6.013-1.944-6.013-3.76-12.026c-1.815-6.013-2.334-5.84-4.15-11.854
		c-1.816-6.185-1.557-6.357-3.242-12.37c-1.687-5.498-0.519-11.51,2.593-15.805c1.946-2.577,1.816-2.577,3.76-5.154
		c1.427-1.889,0.389-4.638-1.555-4.638c-5.707,0-5.707-0.688-11.283-0.688c-5.705,0-5.705,0.688-11.411,0.688
		c-5.577,0-5.577-1.031-11.282-1.031c-5.706,0-5.706,0.688-11.282,0.688c-5.706,0-5.706-0.172-11.412-0.172
		c-1.945,0-2.982,3.264-1.556,5.153c1.945,2.578,2.204,2.233,4.15,4.811c3.112,4.123,3.631,10.48,1.944,15.977
		c-1.815,6.013-1.815,6.013-3.631,12.197c-1.815,6.014-1.297,6.357-3.112,12.37c-1.816,6.013-2.205,5.84-4.02,11.854
		c-1.816,6.185-1.297,6.357-3.112,12.542c-1.038,3.779-5.317,3.607-6.484-0.172c-1.815-6.185-1.815-6.185-3.631-12.37
		c-1.816-6.184-1.946-6.013-3.761-12.197c-1.816-6.185-1.816-6.185-3.631-12.37c-1.816-6.013-1.816-6.185-3.631-12.198
		c-1.557-5.498-0.648-12.025,2.464-16.148c1.686-2.233,1.945-1.891,3.63-4.124c1.427-1.889,0.259-5.669-1.685-5.669
		c-5.317,0-5.317,0.517-10.764,0.517c-5.316,0-5.316,0.343-10.633,0.343c-5.317,0-5.317-0.688-10.634-0.688
		c-5.316,0-5.316-0.172-10.633-0.172c-5.447,0-5.447-0.171-10.764-0.171c-1.944,0-2.723,3.607-1.426,5.325
		c1.944,2.577,1.815,2.749,3.761,5.154c2.593,3.437,4.668,7.387,6.743,11.338c2.075,3.951,3.89,8.074,5.447,12.541
		c2.204,6.013,2.463,5.842,4.668,11.854c2.074,6.185,2.074,6.185,4.279,12.198c2.074,6.184,2.333,6.013,4.409,12.197
		c2.204,6.013,1.555,6.357,3.76,12.37c2.074,6.185,2.464,6.013,4.669,12.025c1.555,4.639,2.074,9.964,1.426,14.774
		c-0.26,2.749-1.037,5.498-1.945,7.903c-0.908,2.233-4.279,4.983-4.02,7.73c0.13,1.031,0.908,1.889,1.685,2.403
		c3.373,1.719,7.912,0.345,11.413,0.345c5.445,0,5.445-0.859,11.022-0.859c5.447,0,5.447,0.514,10.893,0.514
		c5.447,0,5.447,0.345,10.894,0.345c5.446,0,5.446-0.687,11.022-0.687c5.447,0,5.447,0,10.893,0c1.946,0,3.243-3.092,1.816-4.983
		l-0.129,0.174c-2.723-3.609-4.669-8.076-5.317-12.886c-0.647-4.81-0.259-9.964,1.427-14.774c1.816-5.154,1.946-5.154,3.761-10.308
		c1.816-5.326,1.686-5.326,3.631-10.652c1.167-3.436,5.187-3.436,6.354,0c1.815,5.326,1.944,5.154,3.761,10.308
		c1.944,5.327,1.167,5.842,2.982,10.995c1.686,4.639,2.852,9.621,2.205,14.431c-0.39,2.921-1.168,5.841-2.335,8.418
		c-0.908,2.061-2.853,3.607-3.631,5.671c-0.389,1.2,0.13,2.575,1.038,3.264c3.242,2.403,8.429,0.514,11.93,0.514
		c5.447,0,5.447,0.687,10.893,0.687c5.447,0,5.447-0.858,11.023-0.858C586.492,513.091,586.492,513.607,591.939,513.607z"/>
	<path d="M667.686,385.445c-5.446,0-5.446,0.688-11.023,0.688c-2.074,0-3.242,3.092-1.815,4.982
		c4.02,5.498,4.279,5.153,8.429,10.479c2.074,2.92,2.853,6.7,2.853,10.651c0,7.56,0.389,7.56,0.389,14.946
		c0,7.388-0.389,7.388-0.389,14.774c0,7.388,0.129,7.388,0.129,14.774c0,7.56,0.389,7.56,0.389,14.947
		c0,7.388-0.389,7.388-0.389,14.774c0,3.951-0.908,7.903-2.982,10.651c-4.02,5.498-4.02,5.498-8.169,10.994
		c-1.427,1.892-0.519,4.297,1.555,4.297c5.577,0,5.577,0.858,11.023,0.858c5.576,0,5.576,0.17,11.152,0.17
		c5.576,0,5.576-0.514,11.151-0.514c5.577,0,5.577-0.514,11.153-0.514c5.575,0,5.575,0.345,11.152,0.345
		c1.946,0,3.242-3.264,1.816-5.156c-4.149-5.325-4.539-4.81-8.688-10.308c-2.075-2.749-2.854-6.873-2.854-10.824
		c0-7.387-0.13-7.387-0.13-14.774c0-7.387-0.259-7.387-0.259-14.947c0-7.387,0.389-7.387,0.389-14.774c0-7.386,0-7.386,0-14.774
		c0-7.386-0.13-7.386-0.13-14.946c0-3.951,0.908-7.902,3.113-10.651c4.02-5.498,4.409-4.982,8.559-10.309
		c1.426-1.889,0.13-5.498-1.816-5.498c-5.577,0-5.577,0.344-11.152,0.344c-5.577,0-5.577,0.172-11.153,0.172
		c-5.575,0-5.575,0-11.151,0C673.261,386.305,673.261,385.445,667.686,385.445z"/>
	<path d="M779.858,513.607c1.948,0,3.113-3.608,1.688-5.5c-2.854-3.95-2.854-4.121-5.837-8.073
		c-3.502-4.639-5.577-10.651-5.577-17.352c0-6.013-0.387-6.013-0.387-12.026c0-6.185,0.519-6.185,0.519-12.198
		c0-4.123,3.37-5.498,5.187-2.062c3.502,6.356,3.889,5.841,7.261,12.198c3.5,6.528,3.373,6.528,6.745,12.884
		c3.5,6.357,3.89,6.014,7.26,12.542c1.297,2.233,1.557,5.153,1.17,7.902c-0.52,2.921-2.467,4.982-3.113,7.73
		c-0.132,1.203,0.127,2.576,0.905,3.095c0.392,0.342,0.911,0.342,1.43,0.342c3.63,0.172,7.259,0.172,10.891,0.172
		c5.575,0,5.575,0.687,11.153,0.687c5.705,0,5.705,0,11.28,0s5.575-0.687,11.153-0.687c5.577,0,5.577,0,11.152,0
		c2.076,0,2.981-2.919,1.557-4.811c-4.021-5.498-3.762-5.84-7.782-11.338c-2.203-2.749-3.63-6.185-3.63-10.136
		c0-7.559,0.26-7.559,0.26-14.945c0-7.388-0.13-7.388-0.13-14.776c0-7.386-0.13-7.386-0.13-14.774c0-7.559,0.26-7.559,0.26-14.945
		c0-7.388,0.13-7.388,0.13-14.775c0-3.95,0.648-8.074,2.722-10.823c4.021-5.498,4.15-5.498,8.169-10.823
		c1.43-1.891,0.651-5.498-1.425-5.498c-5.575,0-5.575,0.171-11.152,0.171c-5.445,0-5.445,0.86-11.021,0.86
		c-5.577,0-5.577-0.688-11.155-0.688c-5.575,0-5.575,0.515-11.15,0.515s-5.575-0.171-11.15-0.171c-1.17,0-2.335,1.546-2.467,3.264
		c-0.128,2.233,1.557,3.264,2.726,4.638c4.927,6.013,9.854,13.229,9.854,22.678c0,6.013-0.519,6.013-0.519,11.853
		c0,5.842,0.519,5.842,0.519,11.855c0,4.123-4.41,6.013-6.224,2.576c-3.502-6.355-3.11-6.7-6.483-12.884
		c-3.372-6.357-3.892-5.842-7.264-12.198c-3.5-6.357-3.5-6.357-6.873-12.541c-1.943-3.608-1.943-8.59-0.387-12.37
		c0.778-1.89,2.073-2.061,2.333-3.779s-0.908-3.608-2.205-3.608c-5.575,0-5.575,0-11.15,0s-5.575,0-11.283,0
		c-5.575,0-5.575,0.344-11.15,0.344c-5.578,0-5.578-0.172-11.153-0.172c-5.577,0-5.577-0.172-11.152-0.172
		c-2.075,0-2.854,3.265-1.426,5.154c4.149,5.498,4.02,5.498,8.17,10.995c2.073,2.749,2.722,6.873,2.722,10.823
		c0,7.388,0.39,7.388,0.39,14.775c0,7.387,0.26,7.387,0.26,14.945c0,7.388-0.39,7.388-0.39,14.774c0,7.388,0.13,7.388,0.13,14.776
		c0,7.386,0.13,7.386,0.13,14.945c0,3.952-1.427,7.56-3.632,10.309c-4.02,5.498-4.148,5.326-8.169,10.822
		c-1.427,1.892-0.26,5.5,1.815,5.5c5.447,0,5.447,0.17,11.022,0.17s5.575-0.687,11.151-0.687c5.577,0,5.577,0.858,11.152,0.858
		c5.578,0,5.578-1.031,11.153-1.031S774.283,513.607,779.858,513.607z"/>
	<path d="M920.567,512.574c5.705,0,5.705,0.175,11.282,0.175c5.705,0,5.705,0.684,11.41,0.684c5.708,0,5.708-0.17,11.413-0.17
		c2.592,0,4.927-2.578,5.445-5.842c1.167-6.528,0.908-6.528,2.075-12.884c1.165-6.528,1.684-6.357,2.854-12.713
		c1.165-6.528,1.165-6.528,2.333-12.885c0.389-2.404-1.813-4.81-3.503-3.951c-4.019,2.233-4.019,2.062-7.91,4.296
		c-4.019,2.233-3.889,2.233-7.91,4.465c-2.721,1.547-5.575,2.233-8.556,2.233c-6.227,0-6.227,0-12.45,0
		c-6.225,0-6.225,0.517-12.578,0.517c-3.112,0-4.799-3.265-4.929-6.7c-0.13-3.264,1.427-6.528,4.929-6.528
		c4.538,0,4.538-0.172,9.076-0.172c4.539,0,4.539-0.515,8.947-0.515c1.816,0,3.113-1.546,3.113-3.952
		c0-9.277,0.26-9.277,0.26-18.554c0-2.405-1.557-4.124-3.373-4.124c-4.408,0-4.408,0.344-8.947,0.344
		c-4.538,0-4.538-0.688-9.076-0.688c-2.724,0-5.059-2.749-5.059-6.528c0-3.779,2.335-6.185,5.059-6.185c6.354,0,6.354,0,12.578,0
		c6.224,0,6.224,0,12.45,0c2.98,0,5.835,0.688,8.556,2.233c3.892,2.233,4.021,1.718,8.043,3.951c3.889,2.234,4.019,1.89,7.91,4.123
		c1.684,0.859,3.629-0.859,3.113-3.264c-1.17-6.356-1.298-6.356-2.467-12.713c-1.166-6.528-0.779-6.699-1.943-13.056
		c-1.168-6.356-1.687-6.185-2.854-12.713c-0.648-3.264-2.594-5.669-5.186-5.669c-5.705,0-5.705,0.344-11.413,0.344
		c-5.705,0-5.705,0-11.41,0c-5.577,0-5.577-0.172-11.282-0.172c-5.708,0-5.708-0.172-11.413-0.172s-5.705-0.343-11.28-0.343
		c-5.707,0-5.707,0-11.412,0s-5.705,0.516-11.412,0.516c-5.575,0-5.575,0-11.283,0c-2.073,0-2.851,2.749-1.425,4.639
		c4.02,5.498,3.76,5.841,7.911,11.166c2.075,2.921,3.499,6.529,3.499,10.48c0,7.56,0.26,7.56,0.26,14.946
		c0,7.388-0.519,7.388-0.519,14.774c0,7.388,0.132,7.388,0.132,14.774c0,7.56,0.387,7.56,0.387,14.947
		c0,7.388-0.127,7.388-0.127,14.774c0,3.951-1.43,7.73-3.632,10.651c-4.02,5.326-4.02,5.326-8.17,10.652
		c-1.427,1.889-0.39,5.153,1.684,5.153c5.708,0,5.708,0.344,11.283,0.344c5.707,0,5.707-0.688,11.412-0.688s5.705,0,11.412,0
		c5.575,0,5.575,0.688,11.28,0.688S914.859,512.574,920.567,512.574z"/>
</g>
<g id="Layer_7">
	<path d="M988.556,563.648c6.981,3.292,14.92,3.644,22.057,0.5c5.551-2.447,9.027-6.318,13.299-9.92
		c0.161-0.396,0.25-0.816,0.261-1.249c-8.499,2.012-18.266-6.092-24.916-9.83c-0.309-0.174-0.012-0.618,0.295-0.462
		c4.387,2.248,9.033,4.396,13.745,5.887c3.325,1.052,6.479,1.438,9.731,1.716c-4.517-5.36-10.659-9.039-16.663-12.489
		c-8.86-5.099-17.728-10.235-27.469-13.471c-0.227-0.075-0.457-0.116-0.688-0.131C970.854,537.753,973.475,556.537,988.556,563.648z
		 M997.942,557.333c0.161,0.047,0.316,0.118,0.465,0.198c1.108,0.608-0.035,2.406-1.052,1.648c-0.14-0.099-0.267-0.21-0.38-0.333
		C996.362,558.158,997.056,557.062,997.942,557.333z M991.119,552.616c0.993,0.245,1.38,1.509,0.856,2.328
		c-0.528,0.823-1.832,1.002-2.477,0.21c-0.162-0.203-0.313-0.415-0.457-0.627c-0.547-0.856,0.307-2.203,1.313-2.061
		C990.617,552.502,990.867,552.55,991.119,552.616z M987.476,545.3c0.498-0.313,1.113-0.151,1.566,0.16
		c0.585,0.403,0.792,1.189,0.401,1.805c-0.05,0.08-0.128,0.144-0.198,0.212c-0.34,0.55-1.015,0.866-1.651,0.389
		c-0.41-0.316-0.648-0.587-0.816-1.089C986.582,546.182,987,545.6,987.476,545.3z"/>
</g>
<g id="Layer_10">
	<path d="M505.506,231.099c2.013,3.118,4.295,6.018,6.751,8.757c3.729,4.21,7.584,8.198,12.568,11.198
		c3.086,1.809,6.467,2.837,10.137,2.639c5.488-0.242,10.522-1.887,15.051-4.98c1.697-1.126,3.177-2.634,3.944-4.514
		c1.208-3.002,1.786-6.231,1.957-9.478c0.309-5.597-1.02-10.854-2.466-16.161c-0.428-1.52-1.014-2.99-1.499-4.413
		c0.084-0.025,0.163-0.055,0.221-0.154c-1.353-3.189-2.717-6.377-4.086-9.566c-0.63-1.293-1.233-2.519-1.953-3.78
		c-0.679-1.178-1.384-2.363-2.089-3.548c1.47,0.017,2.497,0.435,2.707,2.305c0.037,0.942,0.801,1.791,1.138,2.788
		c0.844,1.936,1.379,4.058,2.364,5.867c2.253,3.916,4.542,7.749,6.956,11.543c2.44,3.865,5.112,7.499,7.631,11.351
		c1.502,2.278,2.834,4.621,4.255,7.012c1.4,2.316,3.54,3.063,6.144,2.679c2.054-0.294,3.862-1.134,5.544-2.462
		c1.453-1.263,2.157-2.62,1.798-4.551c-0.691-4.094-2.271-7.793-3.88-11.483c-0.655-1.459-0.894-2.953-0.826-4.608
		c0.191-5.35,2.098-10.446,3.948-15.553c0.511-1.526,1.68-2.973,2.587-4.429c0.048-0.167,0.287-0.302,0.439-0.418
		c0.138,0.203,0.444,0.361,0.479,0.504c0.273,3.029,0.538,5.977,0.665,9.042c0.163,3.208,0.195,6.529,0.324,9.826
		c0.852,4.124,2.263,8.033,4.733,11.376c1.28,1.854,2.942,3.309,5.251,3.779c2.479,0.508,4.896,0.826,7.471,0.818
		c4.518,0.056,7.968-1.818,11.034-5.029c2.591-2.668,4.674-5.817,6.289-9.184c1.639-3.22,2.556-6.612,3.073-10.103
		c0.102-0.468-0.086-1.204-0.46-1.453c-2.126-1.3-5.47,0.203-6.164,2.678c-1.248,4.845-2.862,9.597-6.026,13.764
		c-0.969,1.397-2.498,2.372-3.801,3.624c-1.434-1.099-1.685-2.733-1.844-4.387c-0.086-0.442-0.189-0.96-0.118-1.434
		c0.523-4.47,0.941-8.915,1.031-13.438c0.109-4.458-1.294-8.403-3.336-12.146c-0.113-0.129-0.313-0.247-0.424-0.378
		c-2.994-3.181-7.208-4.418-12.104-4.035c-4.273,0.326-8.23,1.809-11.003,5.219c-2.085,2.542-3.417,5.379-4.613,8.271
		c-0.496,1.145-1.054,2.385-1.541,3.538c-0.043,0.166-0.27,0.308-0.394,0.498c-0.146-0.195-0.268-0.317-0.307-0.461
		c-1.664-4.063-3.431-8.096-5.063-12.245c-0.558-1.327-0.967-2.771-1.53-4.094c-0.374-0.991,0.11-1.594,1.073-2.178
		c2.368-1.594,4.776-3.098,7.061-4.772c6.608-4.88,10.404-10.944,11.964-17.907c1.464-6.068-0.957-10.587-8.378-13.37
		c-6.339-2.401-13.071-0.723-19.405,2.441c-6.175,3.041-10.392,7.719-12.579,13.219c-1.591,3.897-2.407,7.808-2.342,11.587
		c0.112,3.921,0.52,7.75,0.858,11.604c0.142,0.986-0.07,1.212-1.191,1.04c-0.671-0.12-1.326-0.266-1.97-0.429
		c-0.169-0.285-0.343-0.574-0.511-0.858c-1.672-2.84-3.503-5.547-5.842-7.904c-1.565-1.594-3.45-2.921-6.254-3.089
		c-2.944-0.278-5.876,0.109-8.908,1.058c-0.83,0.247-1.632,0.563-2.458,0.571c-4.308,0.098-8.163,1.941-11.818,4.182
		c-4.783,3.054-7.614,7.098-8.775,11.79c-1.655,6.343-1.087,12.354,1.108,17.889C500.149,221.585,502.465,226.478,505.506,231.099z
		 M563.198,164.278c0.133-0.973,0.474-1.921,0.818-2.868c1.45-3.892,3.457-4.802,7.188-3.026c4.628,2.181,6.865,5.604,6.38,10.431
		c-0.106,1.569-0.276,3.237-0.66,4.802c-1.333,5.507-5.756,9.259-10.512,12.854c-0.622,0.486-1.069,0.222-1.216-0.283
		c-0.625-1.539-1.163-3.106-1.409-3.975C562.847,175.839,562.607,170.125,563.198,164.278z M519.603,187.233
		c0.011-0.487,0.216-0.487,0.624-0.487c1.402-0.071,2.384,0.354,3.354,1.022c1.124,0.697,2.065,1.521,2.917,2.415
		c0.176,1.08,0.71,2.056,1.734,2.882c0.451,0.361,0.916,0.695,1.39,1.011c2.197,3.016,4.067,6.279,5.819,9.526
		c2.177,3.755,4.072,7.627,5.317,11.733c0.889,2.634,1.426,5.325,2.053,7.979c0.55,2.443,1.183,4.854,1.586,7.354
		c0.512,3.019,0.513,6.073-0.141,9.145c-0.087,0.68-0.396,0.56-0.737,0.369c-0.336-0.191-0.549-0.511-0.839-0.8
		c-3.172-3.362-6.115-6.877-8.676-10.705c-2.035-2.991-4.124-6.031-5.654-9.303c-1.248-2.819-2.773-5.608-4.195-8.354
		c0.165-0.066,0.248-0.1,0.331-0.134c-0.828-2.019-1.825-3.965-2.456-5.983c-1.26-4.272-2.435-8.588-2.44-13.125
		C519.58,190.242,519.689,188.736,519.603,187.233z"/>
	<path d="M625.866,189.05c1.46-0.266,1.896-0.998,2.172-2.321c0.635-3.411,2.644-6.008,6.063-7.585
		c2.722-1.348,5.527-2.144,8.543-2.554c0.887-0.148,1.349,0.044,1.339,1.022c-0.029,1.813-0.058,3.626,0.092,5.423
		c0.279,3.37,0.908,6.787,1.018,10.249c0.12,4.587,0.415,9.091,1.282,13.544c0.829,4.079,1.982,8.132,4.083,11.598
		c2.292,3.825,5.099,7.019,9.683,7.996c1.026,0.179,2.137,0.505,3.23,0.539c2.899,0.188,5.771,0.037,8.572-0.982
		c3.808-1.403,5.935-4.546,7.399-8.221c0.57-1.295,1.12-2.612,1.654-3.937c1.654,2.857,3.931,5.327,6.884,7.47
		c4.039,2.906,8.492,4.611,13.364,5.618c3.098,0.589,6.218,0.616,9.348,0.003c4.902-1.044,7.646-4.189,9.494-8.138
		c1.958-4.232,2.849-8.665,3.434-13.442c0.514-4.173,0.901-8.599,0.208-12.995c-0.567-4.002-1.223-8.101-4.142-11.739
		c-1.665-1.989-3.577-3.54-6.274-4.538c-2.958-1.166-6.168-1.569-9.269-2.373c-7.725-1.866-14.356-0.201-19.489,4.293
		c-4.514,3.98-6.681,8.958-7.197,14.289c-0.279,2.64-0.32,5.263-0.12,7.878c-0.642,1.562-1.134,3.179-1.622,4.751
		c-1.395,4.668-3.063,9.268-5.058,13.813c-0.155,0.231-0.308,0.458-0.465,0.686c-0.24-0.147-0.483-0.292-0.646-0.516
		c-0.256-0.747-0.431-1.494-0.69-2.165c-1.547-4.25-1.113-8.92-1.467-13.347c-0.216-1.875-0.351-3.752-0.317-5.629
		c-0.102-3.908-0.037-7.897,0.036-11.882c-0.008-0.301,0.071-0.603-0.024-0.903c-0.776-2.913,0.022-5.941-0.049-8.946
		c-0.022-0.824,0.416-1.212,1.396-1.31c3.662-0.53,7.143-1.682,10.484-3.326c4.244-2.16,7.125-5.249,8.984-9.261
		c1.758-3.869,2.829-7.815,2.863-11.877c0.12-3.83-1.112-7.104-3.469-10.093c-2.927-3.676-7.643-4.804-13.429-4.688
		c-5.098,0.114-10.08,1.594-14.739,4.266c-5.989,3.552-10.619,8.013-12.647,13.96c-1.245,3.708-1.8,7.37-2.157,11.093
		c-0.187,2.273-0.182,4.612-0.175,6.949c-0.039,0.68-0.367,1.083-1.168,1.229c-3.111,0.713-6.305,1.392-9.371,2.327
		c-3.947,1.175-7.318,3.263-9.836,6.556c-1.151,1.44-1.741,2.967-1.6,4.618C622.21,188.711,623.555,189.505,625.866,189.05z
		 M698.205,198.108c0.224-4.128,1.708-7.963,4.028-11.509c1.354-2.099,3.076-4.093,4.814-5.995c0.958-0.985,1.487-0.872,2.476,0.117
		c1.879,1.961,2.47,4.278,3.313,6.543c1.83,4.918,2.001,10.003,1.657,16.086c-0.197,3.681-1.801,7.977-4.192,11.989
		c-1.157,2.011-2.528,3.844-4.997,4.784c-1.077,0.44-1.553,0.486-2.124-0.533c-1.006-1.582-2.112-3.165-2.646-4.928
		c-1.021-3.001-1.998-6.069-2.232-9.32C698.108,202.919,698.072,200.513,698.205,198.108z M667.292,164.647
		c0.144-1.657,0.566-3.317,0.81-5.053c0.576-3.471,1.074-6.938,1.585-10.404c0.427-2.642,2.502-4.703,4.325-6.744
		c0.19-0.151,1.157-0.083,1.448,0.142c2.322,1.646,3.461,3.909,3.922,6.467c0.369,1.81,0.357,3.685,0.443,4.888
		c-0.87,4.961-2.013,9.08-5.093,12.854c-1.814,2.192-4.332,3.198-6.748,4.229c-0.539,0.161-1.172,0.024-1.102-0.652
		C666.93,168.488,667.062,166.535,667.292,164.647z"/>
	<path d="M735.089,225.807c3.634,3.411,7.842,5.689,12.559,7.329c3.007,0.99,6.112,1.431,9.311,1.237
		c5.015-0.383,8.165-3.139,10.519-6.811c2.51-3.939,3.979-8.212,5.184-12.872c1.057-4.072,2.02-8.403,1.906-12.861
		c-0.043-4.041-0.165-8.191-2.595-12.182c-1.396-2.19-3.104-3.985-5.662-5.332c-2.79-1.55-5.938-2.369-8.915-3.575
		c-7.445-2.869-14.257-2.087-19.945,1.692c-5.009,3.355-7.811,8.003-9.021,13.223c-1.35,5.585-1.633,11.232-0.606,17.06
		C728.702,217.767,731.109,222.043,735.089,225.807z M747.543,211.366c0.118-2.427,0.399-4.822,0.845-7.185
		c0.762-4.062,2.743-7.67,5.517-10.878c1.622-1.904,3.592-3.653,5.572-5.312c1.09-0.849,1.595-0.664,2.451,0.444
		c1.615,2.19,1.898,4.566,2.445,6.924c1.182,5.122,0.687,10.182-0.453,16.172c-0.674,3.619-2.832,7.667-5.737,11.326
		c-1.418,1.841-3.02,3.479-5.606,4.083c-1.127,0.302-1.613,0.277-2.042-0.806c-0.795-1.707-1.687-3.414-1.991-5.232
		C747.916,217.786,747.35,214.619,747.543,211.366z"/>
	<path d="M772.43,230.96c-0.338,2.481-0.588,4.907-1.24,7.297c-0.618,2.559,0.561,3.894,2.134,5.197
		c1.597,1.233,3.578,1.655,5.479,1.84c3.435,0.484,6.47-0.509,7.708-4.611c0.065-0.216,0.137-0.431,0.182-0.573
		c0.167-0.262,0.337-0.526,0.427-0.809c0.259,0.239,0.519,0.479,0.698,0.696c2.358,4.395,6.019,7.297,9.982,9.778
		c1.771,1.121,3.758,2.099,5.823,2.65c3.368,0.893,6.863,1.078,10.519,0.804c3.68-0.342,7.273-1.562,10.243-4.441
		c3.226-3.257,5.839-7.026,8.11-11.033c0.787-1.539,0.646-2.265-0.74-3.131c-0.875-0.553-1.765-0.858-2.685-1.099
		c-1.23-0.372-2.33-0.19-3.047,1.059c-0.542,0.833-1.08,1.663-1.57,2.598c-2.281,3.851-5.273,7.063-9.233,9.013
		c-2.805,1.441-7.894,1.514-9.842-2.188c-1.958-3.714-3.608-7.513-5.415-11.336c-0.238-0.563-0.217-0.874,0.533-0.769
		c7.15,0.842,14.141-0.232,20.942-3.789c3.938-1.97,7.401-4.338,9.22-8.628c1.936-4.562,1.29-8.526-2.031-11.901
		c-2.842-2.849-6.354-4.622-10.57-5.463c-4.922-1.018-9.047,0.103-13.127,2.764c-3.276,2.226-6.155,4.843-8.88,7.674
		c-0.304,0.376-0.827,0.604-1.269,0.855c-0.052-0.406-0.16-0.917-0.106-1.369c0.52-2.203,1.118-4.379,1.46-6.635
		c0.189-0.887,0.385-1.22,1.21-1.192c6.227-0.146,11.104-3.139,15.427-7.201c2.568-2.366,4.377-5.227,6.224-8.157
		c1.847-2.932,3.25-5.935,3.479-9.37c0.395-6.962-1.834-12.989-9.067-16.775c-2.213-1.111-4.623-1.951-7.123-2.478
		c-8.962-1.872-15.947,0.739-20.079,7.572c-3.043,4.872-5.023,10.034-6.387,14.963c-1.958,7.253-3.42,14.096-4.156,21.049
		c-0.415,4.708-0.684,9.38-1.32,14.033C773.858,222.237,773.102,226.626,772.43,230.96z M797.315,199.003
		c1.75-6.15,2.595-12.575,4.948-18.612c0.764-2.125,1.073-4.387,1.559-6.6c0.896-2.238,1.604-4.542,3.564-6.288
		c0.662-0.506,1.15-0.428,1.565,0.178c3.14,4.469,4.323,9.321,3.573,14.459c-0.743,4.832-3.47,8.743-6.84,12.295
		c-2.082,2.244-4.287,4.364-7.318,5.374c-0.32,0.129-0.769,0.074-1.047,0.065C797.33,199.558,797.224,199.293,797.315,199.003z
		 M794.924,221.836c3.161-3.712,6.68-7.215,10.528-10.336c2.667-2.099,5.724-3.337,9.019-4.05c1.151-0.302,1.71-0.01,1.646,0.926
		c-0.137,2.675,0.493,5.483-1.035,7.8c-1.026,3.949-4.14,5.827-7.031,7.815c-3.207,2.345-6.94,2.85-10.646,2.868
		c-0.727,0.071-1.467-0.332-2.052-0.687C792.66,224.493,792.665,224.425,794.924,221.836z"/>
	<path d="M828.569,246.873c-2.755,1.896-3.724,5.326-2.132,7.283c1.512,1.762,3.29,3.085,5.312,3.719
		c1.778,0.597,3.702-0.222,5.507-2.599c1.365-1.674,1.932-3.743,1.182-5.447c-0.748-1.699-1.943-2.688-3.41-3.291
		c-0.378-0.178-0.722-0.422-1.057-0.496C832.27,245.746,830.456,245.498,828.569,246.873z"/>
</g>
</svg>
